<?xml version="1.0" encoding="UTF-8"?>
<svg version="1.1" xmlns="http://www.w3.org/2000/svg" width="244" height="73">
<path d="M0 0 C80.52 0 161.04 0 244 0 C244 24.09 244 48.18 244 73 C163.48 73 82.96 73 0 73 C0 48.91 0 24.82 0 0 Z " fill="#FD852C" transform="translate(0,0)"/>
<path d="M0 0 C80.52 0 161.04 0 244 0 C244 24.09 244 48.18 244 73 C163.48 73 82.96 73 0 73 C0 48.91 0 24.82 0 0 Z M4 4 C4 25.12 4 46.24 4 68 C81.55 68 159.1 68 239 68 C239 46.88 239 25.76 239 4 C161.45 4 83.9 4 4 4 Z " fill="#FDFDFC" transform="translate(0,0)"/>
<path d="M0 0 C12.21 0 24.42 0 37 0 C37 19.47 37 38.94 37 59 C17.86 59 -1.28 59 -21 59 C-21 58.67 -21 58.34 -21 58 C-14.4 58 -7.8 58 -1 58 C-1.165 55.669375 -1.33 53.33875 -1.5 50.9375 C-1.62248937 47.02581027 -1.60863857 43.90861044 0.640625 40.55078125 C2.68190281 38.80813482 4.70677514 37.38932601 7 36 C8.05960938 35.17242187 8.05960938 35.17242187 9.140625 34.328125 C11 33 11 33 13 33 C12.67 27.39 12.34 21.78 12 16 C10.55625 17.155 9.1125 18.31 7.625 19.5 C3.25 23 3.25 23 1 23 C1 22.34 1 21.68 1 21 C0.34 21 -0.32 21 -1 21 C-1.0269501 18.06243881 -1.04681474 15.12512445 -1.0625 12.1875 C-1.07087891 11.35412109 -1.07925781 10.52074219 -1.08789062 9.66210938 C-1.09272461 8.45844727 -1.09272461 8.45844727 -1.09765625 7.23046875 C-1.10551147 6.12288208 -1.10551147 6.12288208 -1.11352539 4.99291992 C-1 3 -1 3 0 0 Z " fill="#FBFCFB" transform="translate(29,7)"/>
<path d="M0 0 C19.47 0 38.94 0 59 0 C59 0.33 59 0.66 59 1 C46.79 1 34.58 1 22 1 C22.33 1.99 22.66 2.98 23 4 C22.34 4 21.68 4 21 4 C21 9.94 21 15.88 21 22 C21.66 22 22.32 22 23 22 C23 22.66 23 23.32 23 24 C23.78246094 23.4225 24.56492187 22.845 25.37109375 22.25 C26.88896484 21.13625 26.88896484 21.13625 28.4375 20 C29.44683594 19.2575 30.45617187 18.515 31.49609375 17.75 C34 16 34 16 35 16 C36.78859106 31.35207326 36.78859106 31.35207326 33.83837891 35.71972656 C30.65710772 38.83465545 26.92931519 40.93104925 23 43 C21.01783097 44.98216903 21.58949076 48.83320059 21.4375 51.5625 C21.293125 54.016875 21.14875 56.47125 21 59 C10.605 59.495 10.605 59.495 0 60 C0 40.2 0 20.4 0 0 Z " fill="#FDFBF9" transform="translate(7,6)"/>
<path d="M0 0 C22.44 0 44.88 0 68 0 C68.495 0.99 68.495 0.99 69 2 C153.15 2.495 153.15 2.495 239 3 C239 3.33 239 3.66 239 4 C161.45 4 83.9 4 4 4 C4 25.12 4 46.24 4 68 C81.55 68 159.1 68 239 68 C239 68.33 239 68.66 239 69 C237.21699714 69.00358253 237.21699714 69.00358253 235.39797401 69.00723743 C207.20460442 69.06455188 179.01130512 69.13724996 150.81802622 69.22898628 C147.35068972 69.24025494 143.88335281 69.25139331 140.41601562 69.26245117 C139.72570823 69.26465486 139.03540084 69.26685854 138.32417504 69.269129 C127.13521389 69.3045368 115.94625281 69.32938123 104.75725634 69.35034702 C93.28305218 69.37208141 81.80893512 69.40533318 70.33478963 69.44870156 C63.88708676 69.47270394 57.43946487 69.49138664 50.99171829 69.49761391 C44.92936714 69.50363314 38.86722339 69.52351761 32.80494881 69.55427551 C30.57402419 69.56310672 28.34307252 69.56676791 26.11213112 69.56500816 C23.07789789 69.56336972 20.04430781 69.57993159 17.01016235 69.60127258 C16.11717898 69.59642501 15.22419561 69.59157743 14.30415213 69.58658296 C11.61468897 69.5822099 11.61468897 69.5822099 8 70 C7.34 70.99 6.68 71.98 6 73 C4.02 73 2.04 73 0 73 C0 48.91 0 24.82 0 0 Z " fill="#FCDDC3" transform="translate(0,0)"/>
<path d="M0 0 C4.29 0 8.58 0 13 0 C13 17.16 13 34.32 13 52 C8.71 52 4.42 52 0 52 C0 34.84 0 17.68 0 0 Z " fill="#2EB3FE" transform="translate(46,10)"/>
<path d="M0 0 C1.78859106 15.35207326 1.78859106 15.35207326 -1.16162109 19.71972656 C-4.34289228 22.83465545 -8.07068481 24.93104925 -12 27 C-13.81115956 28.81115956 -13.38199448 31.61278227 -13.5625 34.0625 C-13.706875 36.021875 -13.85125 37.98125 -14 40 C-18.95 40 -23.9 40 -29 40 C-30.97197362 23.58374101 -30.97197362 23.58374101 -26.6328125 17.8984375 C-23.81471707 15.78314337 -21.0303153 13.94514276 -17.98193359 12.19628906 C-14.38238833 10.02361454 -11.09858597 7.41042156 -7.75 4.875 C-1.18247103 0 -1.18247103 0 0 0 Z " fill="#F8791D" transform="translate(42,22)"/>
<path d="M0 0 C0.99 0 1.98 0 3 0 C3 2.97 3 5.94 3 9 C6.3 9 9.6 9 13 9 C13 6.03 13 3.06 13 0 C14.32 0 15.64 0 17 0 C17.33 3.63 17.66 7.26 18 11 C18.515625 10.175 19.03125 9.35 19.5625 8.5 C22 6 22 6 25.5 5.4375 C29 6 29 6 31.4375 7.625 C33.39644605 10.602598 33.31785906 12.50355037 33 16 C34.32 16 35.64 16 37 16 C37.495 16.99 37.495 16.99 38 18 C39.65 18 41.3 18 43 18 C43 17.34 43 16.68 43 16 C42.43410156 15.84144531 41.86820313 15.68289062 41.28515625 15.51953125 C39.07091855 14.81517796 37.05039882 14.09642379 35 13 C33.875 10.4375 33.875 10.4375 34 8 C36 6 36 6 37.9453125 5.8046875 C39.96354167 5.86979167 41.98177083 5.93489583 44 6 C44.66 7.32 45.32 8.64 46 10 C43.36 9.67 40.72 9.34 38 9 C38 9.66 38 10.32 38 11 C39.7015625 11.4640625 39.7015625 11.4640625 41.4375 11.9375 C45 13 45 13 46 14 C46.25 16.9375 46.25 16.9375 46 20 C42.5647952 22.29013653 41.014669 22.17842973 37 22 C36.505 23.485 36.505 23.485 36 25 C33.69 24.67 31.38 24.34 29 24 C29 23.67 29 23.34 29 23 C27.72125 22.87625 26.4425 22.7525 25.125 22.625 C21.25 22.25 21.25 22.25 19 20 C16.39719432 20.32041397 16.39719432 20.32041397 14 21 C14 17.7 14 14.4 14 11 C10.04 11 6.08 11 2 11 C2 14.3 2 17.6 2 21 C1.34 21 0.68 21 0 21 C0 14.07 0 7.14 0 0 Z " fill="#FB8F41" transform="translate(73,27)"/>
<path d="M0 0 C0.33 0 0.66 0 1 0 C1 19.47 1 38.94 1 59 C21.13 59 41.26 59 62 59 C62 39.53 62 20.06 62 0 C62.33 0 62.66 0 63 0 C63.33 19.8 63.66 39.6 64 60 C119.44 60 174.88 60 232 60 C232 59.01 232 58.02 232 57 C232.66 57 233.32 57 234 57 C234 58.32 234 59.64 234 61 C156.45 61 78.9 61 -1 61 C-1 28.76006711 -1 28.76006711 -0.5 14.75 C-0.45140049 13.2877744 -0.40322508 11.82553464 -0.35546875 10.36328125 C-0.24177731 6.90867984 -0.12266861 3.45429584 0 0 Z " fill="#FD6B0A" transform="translate(5,7)"/>
<path d="M0 0 C2.64590014 -0.02684679 5.29153096 -0.04676357 7.9375 -0.0625 C8.69224609 -0.07087891 9.44699219 -0.07925781 10.22460938 -0.08789062 C12.14994313 -0.09652441 14.07535581 -0.05224333 16 0 C16.33 0.33 16.66 0.66 17 1 C19.18292774 1.23481693 21.37203174 1.41363323 23.5625 1.5625 C24.76003906 1.64628906 25.95757812 1.73007813 27.19140625 1.81640625 C28.11824219 1.87699219 29.04507813 1.93757812 30 2 C30 2.33 30 2.66 30 3 C25.71 3 21.42 3 17 3 C17 20.16 17 37.32 17 55 C16.67 55 16.34 55 16 55 C15.505 35.695 15.505 35.695 15 16 C14.67 21.28 14.34 26.56 14 32 C13.67 32 13.34 32 13 32 C12.67 26.72 12.34 21.44 12 16 C10.55625 17.155 9.1125 18.31 7.625 19.5 C3.25 23 3.25 23 1 23 C1 22.34 1 21.68 1 21 C0.34 21 -0.32 21 -1 21 C-1.0269501 18.06243881 -1.04681474 15.12512445 -1.0625 12.1875 C-1.07087891 11.35412109 -1.07925781 10.52074219 -1.08789062 9.66210938 C-1.09111328 8.85966797 -1.09433594 8.05722656 -1.09765625 7.23046875 C-1.10289307 6.49207764 -1.10812988 5.75368652 -1.11352539 4.99291992 C-1 3 -1 3 0 0 Z " fill="#EFF6F8" transform="translate(29,7)"/>
<path d="M0 0 C4.95 0 9.9 0 15 0 C16.9311585 15.15216673 16.9311585 15.15216673 13.75634766 19.83398438 C10.31209867 23.29419374 6.32819114 25.78583538 2 28 C1.34 28 0.68 28 0 28 C0 18.76 0 9.52 0 0 Z " fill="#F88028" transform="translate(13,10)"/>
<path d="M0 0 C0.66 0.33 1.32 0.66 2 1 C1.67 1.99 1.34 2.98 1 4 C1.66 4 2.32 4 3 4 C3.12375 4.7425 3.2475 5.485 3.375 6.25 C3.84458881 8.93038791 3.84458881 8.93038791 5.03125 10.8125 C6.86681598 14.95732641 6.10605882 19.54552975 6 24 C1.71 24 -2.58 24 -7 24 C-7.18951925 20.93460135 -7.32783349 17.88092409 -7.4375 14.8125 C-7.49615234 13.94818359 -7.55480469 13.08386719 -7.61523438 12.19335938 C-7.78524894 5.8542447 -7.78524894 5.8542447 -5.41064453 3.27099609 C-3.47265625 1.88671875 -3.47265625 1.88671875 0 0 Z " fill="#F8781B" transform="translate(21,37)"/>
<path d="M0 0 C33.66 0.495 33.66 0.495 68 1 C67.67 1.99 67.34 2.98 67 4 C66.01 4.33 65.02 4.66 64 5 C63.67 23.81 63.34 42.62 63 62 C62.67 62 62.34 62 62 62 C62 42.2 62 22.4 62 2 C42.53 2 23.06 2 3 2 C3 21.8 3 41.6 3 62 C2.67 62 2.34 62 2 62 C1.67 53.42 1.34 44.84 1 36 C0.67 36 0.34 36 0 36 C0 24.12 0 12.24 0 0 Z " fill="#FCA45F" transform="translate(4,4)"/>
<path d="M0 0 C1.32 0 2.64 0 4 0 C4.08107646 2.75059381 4.14052813 5.49879021 4.1875 8.25 C4.22520508 9.41595703 4.22520508 9.41595703 4.26367188 10.60546875 C4.30788562 14.05414078 4.29500442 16.40261605 2.75 19.53125 C-0.32602112 22.11291058 -3.12323056 21.25421439 -7 21 C-7.66 19.68 -8.32 18.36 -9 17 C-5.7 17.33 -2.4 17.66 1 18 C0.67 17.01 0.34 16.02 0 15 C-0.928125 15.061875 -1.85625 15.12375 -2.8125 15.1875 C-6 15 -6 15 -7.67578125 13.76953125 C-9.34351944 11.54096075 -9.40261081 10.26108127 -9.375 7.5 C-9.38273438 6.7265625 -9.39046875 5.953125 -9.3984375 5.15625 C-8.39117655 -0.29480927 -4.85015194 -0.29694808 0 0 Z " fill="#FAF4ED" transform="translate(159,33)"/>
<path d="M0 0 C3.3 0 6.6 0 10 0 C13 3 13 3 13.375 6.9375 C13.25545545 9.53400754 12.96849568 11.07412781 11.9375 13.5 C9.03865362 15.74426817 6.54614524 15.2676336 3 15 C2.67 16.98 2.34 18.96 2 21 C1.34 21 0.68 21 0 21 C0 14.07 0 7.14 0 0 Z " fill="#FAF6F0" transform="translate(205,33)"/>
<path d="M0 0 C2.17890019 1.59652134 2.90414847 2.48127407 3.3984375 5.15625 C3.39070313 5.9296875 3.38296875 6.703125 3.375 7.5 C3.38273437 8.2734375 3.39046875 9.046875 3.3984375 9.84375 C2.90414847 12.51872593 2.17890019 13.40347866 0 15 C-6.10699588 15.65432099 -6.10699588 15.65432099 -8.6953125 13.7578125 C-10.34361055 11.53705165 -10.40244171 10.24417088 -10.375 7.5 C-10.38273437 6.7265625 -10.39046875 5.953125 -10.3984375 5.15625 C-9.3305481 -0.62291619 -5.10780837 -0.54726518 0 0 Z " fill="#FAF5F0" transform="translate(102,33)"/>
<path d="M0 0 C4.29 0 8.58 0 13 0 C13 17.16 13 34.32 13 52 C10.69 52 8.38 52 6 52 C6 51.67 6 51.34 6 51 C7.65 51 9.3 51 11 51 C10.98525131 50.43259094 10.97050262 49.86518188 10.95530701 49.28057861 C10.80290304 43.376005 10.65814217 37.47127914 10.51782227 31.56640625 C10.46444636 29.3625818 10.40912049 27.15880368 10.35180664 24.95507812 C10.26977289 21.78786203 10.19474849 18.62054565 10.12109375 15.453125 C10.09405869 14.46757629 10.06702362 13.48202759 10.03916931 12.46661377 C10.01907303 11.5459613 9.99897675 10.62530884 9.97827148 9.67675781 C9.95828598 8.8684552 9.93830048 8.06015259 9.91770935 7.22735596 C10 5 10 5 11 1 C7.7 1 4.4 1 1 1 C1.33 1.99 1.66 2.98 2 4 C2.05960315 5.58116898 2.05909507 7.16497548 2.02172852 8.74682617 C2.00163223 9.70759567 1.98153595 10.66836517 1.96083069 11.6582489 C1.93379562 12.69270645 1.90676056 13.727164 1.87890625 14.79296875 C1.85529526 15.85413406 1.83168427 16.91529938 1.80735779 18.00862122 C1.73071549 21.4017167 1.64669324 24.79458429 1.5625 28.1875 C1.5092799 30.48631693 1.4565395 32.78514502 1.40429688 35.08398438 C1.27509954 40.7227976 1.1398408 46.36144123 1 52 C0.67 52 0.34 52 0 52 C0 34.84 0 17.68 0 0 Z " fill="#23AFFC" transform="translate(46,10)"/>
<path d="M0 0 C4.33333333 0 8.66666667 0 13 0 C14.03125 -0.020625 15.0625 -0.04125 16.125 -0.0625 C19 0 19 0 20 1 C20.07271741 3.35313555 20.08370868 5.70833668 20.0625 8.0625 C20.05347656 9.35285156 20.04445312 10.64320312 20.03515625 11.97265625 C20.02355469 12.97167969 20.01195312 13.97070312 20 15 C19.34 15 18.68 15 18 15 C17.67 11.04 17.34 7.08 17 3 C15.68 3 14.36 3 13 3 C12.67 6.96 12.34 10.92 12 15 C11.01 15 10.02 15 9 15 C8.67 11.04 8.34 7.08 8 3 C6.68 3 5.36 3 4 3 C3.67 6.96 3.34 10.92 3 15 C2.01 15 1.02 15 0 15 C0 10.05 0 5.1 0 0 Z " fill="#FBF1E8" transform="translate(166,33)"/>
<path d="M0 0 C1 1 1 1 1.09765625 3.72265625 C1.08605469 4.82480469 1.07445312 5.92695312 1.0625 7.0625 C1.05347656 8.16722656 1.04445312 9.27195312 1.03515625 10.41015625 C1.02355469 11.26480469 1.01195312 12.11945312 1 13 C1.66 13 2.32 13 3 13 C3 13.66 3 14.32 3 15 C1.04196493 15.05389087 -0.91648909 15.09274217 -2.875 15.125 C-4.51082031 15.15980469 -4.51082031 15.15980469 -6.1796875 15.1953125 C-9 15 -9 15 -11 13 C-10.67028521 9.70285207 -10.3773161 8.3773161 -8 6 C-6.01178687 5.60235737 -4.01055661 5.26224651 -2 5 C-2 4.34 -2 3.68 -2 3 C-5.04386724 2.91773332 -7.07175348 3.02391783 -10 4 C-9.625 2.0625 -9.625 2.0625 -9 0 C-5.90842747 -1.54578627 -3.31526981 -0.60277633 0 0 Z " fill="#FAE9DA" transform="translate(200,33)"/>
<path d="M0 0 C0.66 0 1.32 0 2 0 C2 1.32 2 2.64 2 4 C2.66 4 3.32 4 4 4 C4 3.01 4 2.02 4 1 C5.98 1.66 7.96 2.32 10 3 C10 8.28 10 13.56 10 19 C9.01 19 8.02 19 7 19 C5.71553081 16.43106162 5.67022856 14.23423663 5.4375 11.375 C5.35371094 10.37210938 5.26992187 9.36921875 5.18359375 8.3359375 C5.12300781 7.56507812 5.06242188 6.79421875 5 6 C4.01 6 3.02 6 2 6 C2 9.63 2 13.26 2 17 C2.99 17 3.98 17 5 17 C5 17.66 5 18.32 5 19 C3.33388095 19.042721 1.66617115 19.04063832 0 19 C-1 18 -1 18 -1.09765625 15.27734375 C-1.08605469 14.17519531 -1.07445313 13.07304688 -1.0625 11.9375 C-1.05347656 10.83277344 -1.04445313 9.72804688 -1.03515625 8.58984375 C-1.02355469 7.73519531 -1.01195313 6.88054688 -1 6 C-1.66 6 -2.32 6 -3 6 C-3 5.34 -3 4.68 -3 4 C-2.34 4 -1.68 4 -1 4 C-0.67 2.68 -0.34 1.36 0 0 Z " fill="#FAECE0" transform="translate(123,29)"/>
<path d="M0 0 C0.99 0 1.98 0 3 0 C3 2.97 3 5.94 3 9 C6.3 9 9.6 9 13 9 C13 6.03 13 3.06 13 0 C13.99 0 14.98 0 16 0 C16 6.93 16 13.86 16 21 C15.34 21 14.68 21 14 21 C14 17.7 14 14.4 14 11 C10.04 11 6.08 11 2 11 C2 14.3 2 17.6 2 21 C1.34 21 0.68 21 0 21 C0 14.07 0 7.14 0 0 Z " fill="#FCF5ED" transform="translate(73,27)"/>
<path d="M0 0 C0.33 0.66 0.66 1.32 1 2 C1.66 2.33 2.32 2.66 3 3 C5 4 5 4 6 6 C5.34 6 4.68 6 4 6 C4.33 6.99 4.66 7.98 5 9 C4.67 9.66 4.34 10.32 4 11 C5.32 10.67 6.64 10.34 8 10 C7.125 13.875 7.125 13.875 6 15 C5.76572222 17.01594582 5.58663876 19.038474 5.4375 21.0625 C5.293125 23.021875 5.14875 24.98125 5 27 C0.05 27 -4.9 27 -10 27 C-10 20.73 -10 14.46 -10 8 C-9.67 8 -9.34 8 -9 8 C-9 13.94 -9 19.88 -9 26 C-4.71 26 -0.42 26 4 26 C3.5906328 17.49751821 3.5906328 17.49751821 0 10 C0.3125 7.6875 0.3125 7.6875 1 6 C0.34 6 -0.32 6 -1 6 C-1.042721 4.33388095 -1.04063832 2.66617115 -1 1 C-0.67 0.67 -0.34 0.34 0 0 Z " fill="#F89347" transform="translate(23,35)"/>
<path d="M0 0 C2.01822917 0.06510417 4.03645833 0.13020833 6.0546875 0.1953125 C6.7146875 1.5153125 7.3746875 2.8353125 8.0546875 4.1953125 C5.4146875 3.8653125 2.7746875 3.5353125 0.0546875 3.1953125 C0.0546875 3.8553125 0.0546875 4.5153125 0.0546875 5.1953125 C1.75625 5.659375 1.75625 5.659375 3.4921875 6.1328125 C7.0546875 7.1953125 7.0546875 7.1953125 8.0546875 8.1953125 C8.09549533 10.19489614 8.09723106 12.19576504 8.0546875 14.1953125 C4.84017481 15.80256885 1.61856214 15.25279435 -1.9453125 15.1953125 C-2.6053125 13.8753125 -3.2653125 12.5553125 -3.9453125 11.1953125 C-0.9753125 11.5253125 1.9946875 11.8553125 5.0546875 12.1953125 C5.0546875 11.5353125 5.0546875 10.8753125 5.0546875 10.1953125 C4.48878906 10.03675781 3.92289062 9.87820312 3.33984375 9.71484375 C1.12560605 9.01049046 -0.89491368 8.29173629 -2.9453125 7.1953125 C-4.0703125 4.6328125 -4.0703125 4.6328125 -3.9453125 2.1953125 C-1.9453125 0.1953125 -1.9453125 0.1953125 0 0 Z " fill="#FAE7D7" transform="translate(110.9453125,32.8046875)"/>
<path d="M0 0 C3.5 0.1875 3.5 0.1875 5.5 1.1875 C5.5 2.1775 5.5 3.1675 5.5 4.1875 C2.86 3.5275 0.22 2.8675 -2.5 2.1875 C-2.17 3.1775 -1.84 4.1675 -1.5 5.1875 C-0.345 5.64125 0.81 6.095 2 6.5625 C5.5 8.1875 5.5 8.1875 6.5625 10.75 C6.5 13.1875 6.5 13.1875 4.5 15.1875 C2.3359375 15.3828125 2.3359375 15.3828125 -0.125 15.3125 C-0.94226563 15.29445313 -1.75953125 15.27640625 -2.6015625 15.2578125 C-3.22804687 15.23460937 -3.85453125 15.21140625 -4.5 15.1875 C-5.16 13.8675 -5.82 12.5475 -6.5 11.1875 C-3.53 11.5175 -0.56 11.8475 2.5 12.1875 C2.5 11.5275 2.5 10.8675 2.5 10.1875 C0.7984375 9.5996875 0.7984375 9.5996875 -0.9375 9 C-4.5 7.1875 -4.5 7.1875 -5.5625 4.625 C-5.45567875 0.45897144 -3.95064504 0.2116417 0 0 Z " fill="#FAECE0" transform="translate(225.5,32.8125)"/>
<path d="M0 0 C2.5625 0.1875 2.5625 0.1875 4.5625 2.1875 C4.8125 5.6875 4.8125 5.6875 4.5625 9.1875 C2.5625 11.1875 2.5625 11.1875 0.0625 11.5 C-1.175 11.3453125 -1.175 11.3453125 -2.4375 11.1875 C-4.4375 8.1875 -4.4375 8.1875 -4.125 4.5625 C-3.2464725 0.24972865 -3.2464725 0.24972865 0 0 Z " fill="#FB8832" transform="translate(98.4375,34.8125)"/>
<path d="M0 0 C0.33 0 0.66 0 1 0 C1.02894547 3.45831586 1.04678 6.91660072 1.0625 10.375 C1.07087891 11.35984375 1.07925781 12.3446875 1.08789062 13.359375 C1.09111328 14.30039062 1.09433594 15.24140625 1.09765625 16.2109375 C1.10289307 17.08024902 1.10812988 17.94956055 1.11352539 18.84521484 C1 21 1 21 0 23 C-2 23 -2 23 -3.625 21.5 C-4.07875 21.005 -4.5325 20.51 -5 20 C-5 20.66 -5 21.32 -5 22 C-5.66 21.67 -6.32 21.34 -7 21 C-7 20.01 -7 19.02 -7 18 C-8.32 17.34 -9.64 16.68 -11 16 C-3.57142857 13.57142857 -3.57142857 13.57142857 0 15 C-0.33 14.34 -0.66 13.68 -1 13 C-1.09585131 11.35643193 -1.12983511 9.70885358 -1.125 8.0625 C-1.12757813 7.18722656 -1.13015625 6.31195313 -1.1328125 5.41015625 C-1 3 -1 3 0 0 Z " fill="#FB7A1B" transform="translate(203,33)"/>
<path d="M0 0 C4.55555556 0.55555556 4.55555556 0.55555556 6 2 C6.23728814 8.52542373 6.23728814 8.52542373 5 11 C2.625 11.1875 2.625 11.1875 0 11 C-2.30163882 7.54754176 -2.34490322 6.05261287 -2 2 C-1.34 1.34 -0.68 0.68 0 0 Z " fill="#FA852E" transform="translate(209,35)"/>
<path d="M0 0 C2.00720923 0.28674418 4.0085944 0.61866701 6 1 C6.125 8.75 6.125 8.75 5 11 C2.625 11.1875 2.625 11.1875 0 11 C-2 8 -2 8 -1.6875 4.375 C-1 1 -1 1 0 0 Z " fill="#FA832A" transform="translate(154,35)"/>
<path d="M0 0 C1.32 0 2.64 0 4 0 C5.216875 -0.020625 6.43375 -0.04125 7.6875 -0.0625 C11 0 11 0 12 1 C12.07271741 3.35313555 12.08370868 5.70833668 12.0625 8.0625 C12.05347656 9.35285156 12.04445312 10.64320312 12.03515625 11.97265625 C12.02355469 12.97167969 12.01195312 13.97070312 12 15 C11.34 15 10.68 15 10 15 C9.67 11.04 9.34 7.08 9 3 C7.35 3 5.7 3 4 3 C2.26043342 4.73956658 2.62809614 7.1936622 2.4375 9.5625 C2.35371094 10.57441406 2.26992187 11.58632813 2.18359375 12.62890625 C2.12300781 13.41136719 2.06242188 14.19382812 2 15 C1.34 15 0.68 15 0 15 C0 10.05 0 5.1 0 0 Z " fill="#FBF5ED" transform="translate(136,33)"/>
<path d="M0 0 C0.33 0 0.66 0 1 0 C1.25 5.625 1.25 5.625 -1 9 C-3.27734375 9.36328125 -3.27734375 9.36328125 -5.9375 9.3125 C-6.81277344 9.30863281 -7.68804687 9.30476563 -8.58984375 9.30078125 C-11 9 -11 9 -14 7 C-14.66 8.98 -15.32 10.96 -16 13 C-17.65 12.67 -19.3 12.34 -21 12 C-21.33 10.68 -21.66 9.36 -22 8 C-21.21625 7.731875 -20.4325 7.46375 -19.625 7.1875 C-16.71885077 6.15185568 -16.71885077 6.15185568 -15 3 C-14.34 3 -13.68 3 -13 3 C-12.01 4.485 -12.01 4.485 -11 6 C-8.79274927 6.36362818 -8.79274927 6.36362818 -6.375 6.1875 C-5.55773437 6.16042969 -4.74046875 6.13335937 -3.8984375 6.10546875 C-3.27195313 6.07066406 -2.64546875 6.03585938 -2 6 C-1.34 4.02 -0.68 2.04 0 0 Z " fill="#FA7F24" transform="translate(232,41)"/>
<path d="M0 0 C-0.38671018 2.35084834 -0.67348591 3.67969817 -2.39868164 5.37207031 C-2.97996826 5.77006836 -3.56125488 6.16806641 -4.16015625 6.578125 C-4.78857422 7.01640625 -5.41699219 7.4546875 -6.06445312 7.90625 C-7.05348633 8.57140625 -7.05348633 8.57140625 -8.0625 9.25 C-8.72572266 9.70890625 -9.38894531 10.1678125 -10.07226562 10.640625 C-11.70802307 11.77035676 -13.35314234 12.88651173 -15 14 C-15.66 13.34 -16.32 12.68 -17 12 C-13.46281847 6.6942277 -6.67125103 0 0 0 Z " fill="#FBF4EB" transform="translate(30,28)"/>
<path d="M0 0 C1.98 0.66 3.96 1.32 6 2 C6 7.28 6 12.56 6 18 C5.01 18 4.02 18 3 18 C1.55792059 15.11584117 1.90605113 12.58278472 1.9375 9.375 C1.94652344 8.18648437 1.95554688 6.99796875 1.96484375 5.7734375 C1.97644531 4.85820313 1.98804688 3.94296875 2 3 C1.34 3 0.68 3 0 3 C0 2.01 0 1.02 0 0 Z " fill="#FBC399" transform="translate(127,30)"/>
<path d="M0 0 C3.3 0 6.6 0 10 0 C10.33 0.66 10.66 1.32 11 2 C8.69 2.33 6.38 2.66 4 3 C3.67 6.96 3.34 10.92 3 15 C2.01 15 1.02 15 0 15 C0 10.05 0 5.1 0 0 Z " fill="#FAE9DC" transform="translate(166,33)"/>
<path d="M0 0 C0.66 0.33 1.32 0.66 2 1 C1.34 1.66 0.68 2.32 0 3 C-0.31241113 5.53084814 -0.31241113 5.53084814 1 8 C3.56193515 9.36996111 6.20843706 10.21785366 9 11 C8.67 11.99 8.34 12.98 8 14 C6.35 14 4.7 14 3 14 C2.67 13.01 2.34 12.02 2 11 C0.68 11 -0.64 11 -2 11 C-2.33 8.03 -2.66 5.06 -3 2 C-2.01 1.34 -1.02 0.68 0 0 Z " fill="#F97C1D" transform="translate(108,32)"/>
<path d="M0 0 C0.99 0.33 1.98 0.66 3 1 C2.34 2.32 1.68 3.64 1 5 C3.33165034 5.33498301 3.33165034 5.33498301 6 5 C8.31377147 3.10415891 8.31377147 3.10415891 10 1 C10 2.65 10 4.3 10 6 C10.66 6 11.32 6 12 6 C12 6.66 12 7.32 12 8 C10.04196493 8.05389087 8.08351091 8.09274217 6.125 8.125 C5.03445312 8.14820313 3.94390625 8.17140625 2.8203125 8.1953125 C0 8 0 8 -2 6 C-1.44444444 1.44444444 -1.44444444 1.44444444 0 0 Z " fill="#FAF6F1" transform="translate(191,40)"/>
<path d="M0 0 C0.33 0 0.66 0 1 0 C1.33 4.95 1.66 9.9 2 15 C1.01 15.495 1.01 15.495 0 16 C0 15.01 0 14.02 0 13 C-0.99 13 -1.98 13 -3 13 C-3 9.37 -3 5.74 -3 2 C-2.01 2 -1.02 2 0 2 C0 1.34 0 0.68 0 0 Z " fill="#FB7B1D" transform="translate(128,33)"/>
<path d="M0 0 C1.65 0 3.3 0 5 0 C5.66 1.32 6.32 2.64 7 4 C6 6 6 6 4 8 C1.24627091 8.36933645 -1.20365661 8.18336678 -4 8 C-4.66 6.68 -5.32 5.36 -6 4 C-2.7 4.33 0.6 4.66 4 5 C2.16343011 2.03268602 2.16343011 2.03268602 0 0 Z " fill="#FAEEE2" transform="translate(156,46)"/>
<path d="M0 0 C0.66 0 1.32 0 2 0 C2 1.98 2 3.96 2 6 C-1.21451269 7.60725635 -4.43612536 7.05748185 -8 7 C-8.66 5.68 -9.32 4.36 -10 3 C-7.03 3.33 -4.06 3.66 -1 4 C-0.67 2.68 -0.34 1.36 0 0 Z " fill="#FAF3EA" transform="translate(117,41)"/>
<path d="M0 0 C0.33 0 0.66 0 1 0 C1 1.65 1 3.3 1 5 C1.66 5 2.32 5 3 5 C3 5.66 3 6.32 3 7 C4.98 7 6.96 7 9 7 C9 5.02 9 3.04 9 1 C9.33 1 9.66 1 10 1 C10 3.64 10 6.28 10 9 C6.7 9 3.4 9 0 9 C0 6.03 0 3.06 0 0 Z " fill="#FB7E1F" transform="translate(76,27)"/>
<path d="M0 0 C1.43655854 -0.08131463 2.8744483 -0.13933559 4.3125 -0.1875 C5.51326172 -0.23970703 5.51326172 -0.23970703 6.73828125 -0.29296875 C9 0 9 0 10.79296875 1.38671875 C12 3 12 3 12 5 C11.34 5 10.68 5 10 5 C10 6.65 10 8.3 10 10 C9.67 10 9.34 10 9 10 C8.34 7.69 7.68 5.38 7 3 C4.69 2.67 2.38 2.34 0 2 C0 1.34 0 0.68 0 0 Z " fill="#FAE4D4" transform="translate(206,33)"/>
<path d="M0 0 C0.66 0 1.32 0 2 0 C3.09651823 3.41139003 2.94215473 6.20655581 2.5625 9.75 C2.40974609 11.22726563 2.40974609 11.22726563 2.25390625 12.734375 C2.12822266 13.85585938 2.12822266 13.85585938 2 15 C1.34 15 0.68 15 0 15 C0 10.05 0 5.1 0 0 Z " fill="#FBFDFB" transform="translate(136,33)"/>
<path d="M0 0 C-0.875 3.875 -0.875 3.875 -2 5 C-3.66617115 5.04063832 -5.33388095 5.042721 -7 5 C-7 3.68 -7 2.36 -7 1 C-4 0 -4 0 0 0 Z " fill="#FA8229" transform="translate(199,41)"/>
<path d="M0 0 C3.26954202 0.56371414 4.82575883 1.49962266 7 4 C6.01 4.495 6.01 4.495 5 5 C5 4.34 5 3.68 5 3 C4.34 3 3.68 3 3 3 C3 7.95 3 12.9 3 18 C2.67 18 2.34 18 2 18 C2 13.05 2 8.1 2 3 C1.34 3 0.68 3 0 3 C0 2.01 0 1.02 0 0 Z " fill="#FB9041" transform="translate(133,30)"/>
<path d="M0 0 C0 4.29 0 8.58 0 13 C-0.66 13 -1.32 13 -2 13 C-2 9.7 -2 6.4 -2 3 C-3.65 3 -5.3 3 -7 3 C-7 2.67 -7 2.34 -7 2 C-1.125 0 -1.125 0 0 0 Z " fill="#FBFDFB" transform="translate(89,35)"/>
<path d="M0 0 C3.5625 0.125 3.5625 0.125 5.5625 1.125 C5.5625 2.115 5.5625 3.105 5.5625 4.125 C4.304375 3.898125 3.04625 3.67125 1.75 3.4375 C-1.57888709 2.92306803 -1.57888709 2.92306803 -4.4375 4.5625 C-4.7675 5.078125 -5.0975 5.59375 -5.4375 6.125 C-4.36664125 0.15878695 -4.36664125 0.15878695 0 0 Z " fill="#FAF5EF" transform="translate(225.4375,32.875)"/>
<path d="M0 0 C0.33 0.66 0.66 1.32 1 2 C1.99 1.34 2.98 0.68 4 0 C6.6875 -0.125 6.6875 -0.125 9 0 C9 1.32 9 2.64 9 4 C6.03 3.67 3.06 3.34 0 3 C0 2.01 0 1.02 0 0 Z " fill="#F98C3A" transform="translate(189,35)"/>
<path d="M0 0 C0.99 0 1.98 0 3 0 C3.29296875 6.0546875 3.29296875 6.0546875 3 8 C2.01 8.66 1.02 9.32 0 10 C0 6.7 0 3.4 0 0 Z " fill="#FBECDE" transform="translate(86,27)"/>
<path d="M0 0 C1.32 0.66 2.64 1.32 4 2 C4 4.31 4 6.62 4 9 C3.01 9 2.02 9 1 9 C1.66 7.35 2.32 5.7 3 4 C1.68 4.33 0.36 4.66 -1 5 C-0.67 3.35 -0.34 1.7 0 0 Z " fill="#FA7B1B" transform="translate(211,35)"/>
<path d="M0 0 C1.65 0 3.3 0 5 0 C5 4.29 5 8.58 5 13 C4.67 13 4.34 13 4 13 C4 10.03 4 7.06 4 4 C3.34 4 2.68 4 2 4 C2 3.34 2 2.68 2 2 C1.34 2 0.68 2 0 2 C0 1.34 0 0.68 0 0 Z " fill="#F97C1D" transform="translate(140,35)"/>
<path d="M0 0 C0.33 0.66 0.66 1.32 1 2 C1.99 2.33 2.98 2.66 4 3 C3.01 5.64 2.02 8.28 1 11 C0.67 11 0.34 11 0 11 C0 7.37 0 3.74 0 0 Z " fill="#FBFCFB" transform="translate(205,33)"/>
<path d="M0 0 C1.32 0 2.64 0 4 0 C4 4.29 4 8.58 4 13 C3.67 13 3.34 13 3 13 C3 9.7 3 6.4 3 3 C2.01 3 1.02 3 0 3 C0 2.01 0 1.02 0 0 Z " fill="#FC7E1E" transform="translate(170,35)"/>
<path d="M0 0 C-1.65 0.66 -3.3 1.32 -5 2 C-4.67 2.99 -4.34 3.98 -4 5 C-4.99 5 -5.98 5 -7 5 C-7 4.01 -7 3.02 -7 2 C-7.66 2 -8.32 2 -9 2 C-9 1.34 -9 0.68 -9 0 C-3.375 -1.125 -3.375 -1.125 0 0 Z " fill="#F97A19" transform="translate(119,49)"/>
<path d="M0 0 C1.98 0.495 1.98 0.495 4 1 C3.34 2.98 2.68 4.96 2 7 C1.34 7 0.68 7 0 7 C-1.125 2.25 -1.125 2.25 0 0 Z " fill="#FA7F24" transform="translate(165,48)"/>
<path d="M0 0 C1.65 0 3.3 0 5 0 C5.33 1.32 5.66 2.64 6 4 C4.35 4 2.7 4 1 4 C0.67 2.68 0.34 1.36 0 0 Z " fill="#FA7D20" transform="translate(223,35)"/>
<path d="M0 0 C2.375 -0.125 2.375 -0.125 5 0 C7 2 7 2 7.125 5.625 C7.08375 6.73875 7.0425 7.8525 7 9 C6.67 9 6.34 9 6 9 C6 7.02 6 5.04 6 3 C3.03 2.505 3.03 2.505 0 2 C0 1.34 0 0.68 0 0 Z " fill="#F98D3B" transform="translate(96,35)"/>
<path d="M0 0 C1.98 0 3.96 0 6 0 C6.66 1.32 7.32 2.64 8 4 C5.33333333 3.33333333 2.66666667 2.66666667 0 2 C0 1.34 0 0.68 0 0 Z " fill="#F9F0E3" transform="translate(111,33)"/>
<path d="M0 0 C1.65 0 3.3 0 5 0 C5.66 1.32 6.32 2.64 7 4 C6.01 4.99 5.02 5.98 4 7 C3.34 6.34 2.68 5.68 2 5 C2.66 5 3.32 5 4 5 C2.16343011 2.03268602 2.16343011 2.03268602 0 0 Z " fill="#F9E4D1" transform="translate(156,46)"/>
<path d="M0 0 C0.33 1.32 0.66 2.64 1 4 C-0.98 4.33 -2.96 4.66 -5 5 C-4.34 4.34 -3.68 3.68 -3 3 C-3.66 2.34 -4.32 1.68 -5 1 C-3.35 0.67 -1.7 0.34 0 0 Z " fill="#FA8738" transform="translate(159,47)"/>
<path d="M0 0 C0.33 0 0.66 0 1 0 C1.04241723 2.33294775 1.04092937 4.66702567 1 7 C0 8 0 8 -2.5625 8.0625 C-3.366875 8.041875 -4.17125 8.02125 -5 8 C-5 7.34 -5 6.68 -5 6 C-3.68 5.67 -2.36 5.34 -1 5 C-0.67 3.35 -0.34 1.7 0 0 Z " fill="#FB7C1E" transform="translate(101,38)"/>
<path d="M0 0 C1.65 0.33 3.3 0.66 5 1 C4.67 1.99 4.34 2.98 4 4 C2.35 4 0.7 4 -1 4 C-0.67 2.68 -0.34 1.36 0 0 Z " fill="#F87A1A" transform="translate(224,42)"/>
<path d="M0 0 C0.33 1.32 0.66 2.64 1 4 C1.598125 3.649375 2.19625 3.29875 2.8125 2.9375 C5 2 5 2 8 3 C8 3.66 8 4.32 8 5 C4.94736336 5.98120464 3.05263664 5.98120464 0 5 C0 3.35 0 1.7 0 0 Z " fill="#F9954C" transform="translate(218,39)"/>
<path d="M0 0 C-0.66 1.32 -1.32 2.64 -2 4 C-2.99 3.67 -3.98 3.34 -5 3 C-5.33 2.01 -5.66 1.02 -6 0 C-2.25 -1.125 -2.25 -1.125 0 0 Z " fill="#FA791A" transform="translate(216,49)"/>
<path d="M0 0 C0.33 0 0.66 0 1 0 C1.33 2.64 1.66 5.28 2 8 C0.68 7.67 -0.64 7.34 -2 7 C-1.34 4.69 -0.68 2.38 0 0 Z " fill="#FA7A1A" transform="translate(121,40)"/>
<path d="M0 0 C0.33 0 0.66 0 1 0 C1.125 2.875 1.125 2.875 1 6 C0.34 6.66 -0.32 7.32 -1 8 C-1.66 6.02 -2.32 4.04 -3 2 C-2.01 2 -1.02 2 0 2 C0 1.34 0 0.68 0 0 Z " fill="#FC8327" transform="translate(128,33)"/>
</svg>
